<svg xmlns="http://www.w3.org/2000/svg" viewBox="0 0 1600 1000" font-family="'Inter', 'SF Pro', -apple-system, sans-serif">
  <defs>
    <pattern id="grid-r" width="40" height="40" patternUnits="userSpaceOnUse">
      <path d="M 40 0 L 0 0 0 40" fill="none" stroke="#ffffff" stroke-width="0.15" stroke-opacity="0.07"/>
    </pattern>
    <pattern id="grid-r-sm" width="8" height="8" patternUnits="userSpaceOnUse">
      <path d="M 8 0 L 0 0 0 8" fill="none" stroke="#ffffff" stroke-width="0.1" stroke-opacity="0.035"/>
    </pattern>
    <linearGradient id="fd-r" x1="0" y1="0" x2="0" y2="1">
      <stop offset="0" stop-color="#ffffff" stop-opacity="0.05"/>
      <stop offset="1" stop-color="#ffffff" stop-opacity="0"/>
    </linearGradient>
    <filter id="glow-r">
      <feGaussianBlur stdDeviation="2" result="b"/>
      <feMerge><feMergeNode in="b"/><feMergeNode in="SourceGraphic"/></feMerge>
    </filter>
  </defs>

  <rect width="1600" height="1000" fill="#0e0e0e"/>
  <rect width="1600" height="1000" fill="url(#grid-r-sm)"/>
  <rect width="1600" height="1000" fill="url(#grid-r)"/>

  <!-- Title -->
  <g transform="translate(1180, 24)">
    <rect width="390" height="56" fill="none" stroke="#ffffff" stroke-width="0.5" opacity="0.18"/>
    <rect x="1" y="1" width="388" height="28" fill="url(#fd-r)"/>
    <line x1="0" y1="29" x2="390" y2="29" stroke="#ffffff" stroke-width="0.3" opacity="0.1"/>
    <text x="195" y="19" text-anchor="middle" fill="#ffffff" font-size="11" font-weight="700" letter-spacing="4" opacity="0.9">ACTIONS RING</text>
    <text x="195" y="46" text-anchor="middle" fill="#ffffff" font-size="8" letter-spacing="2.5" opacity="0.35">MX MASTER 4  //  8 CONTEXT-AWARE ACTIONS</text>
  </g>
  <text x="30" y="40" fill="#ffffff" font-size="9" letter-spacing="2.5" opacity="0.25">WISPY CONSOLE  //  HAUSOR LABS</text>
  <text x="30" y="56" fill="#ffffff" font-size="7" letter-spacing="2" opacity="0.15">BLUEPRINT REV 2.0  //  FEB 2026</text>

  <!-- ================================================================ -->
  <!-- VS CODE RING (8 actions) -->
  <!-- ================================================================ -->
  <g transform="translate(310, 420)">
    <text x="0" y="-245" text-anchor="middle" fill="#ffffff" font-size="11" font-weight="700" letter-spacing="3" opacity="0.55">VS CODE</text>
    <text x="0" y="-228" text-anchor="middle" fill="#ffffff" font-size="7.5" opacity="0.2" letter-spacing="1.5">CODER AGENT PROFILE</text>

    <!-- Rings -->
    <circle r="200" fill="none" stroke="#ffffff" stroke-width="0.3" opacity="0.08"/>
    <circle r="170" fill="none" stroke="#ffffff" stroke-width="0.2" opacity="0.04"/>

    <!-- 8 actions placed around the ring at 45deg intervals -->
    <!-- 1: Commit (top) -->
    <g transform="translate(0, -185)">
      <circle r="30" fill="#ffffff" fill-opacity="0.015" stroke="#ffffff" stroke-width="0.7" opacity="0.3"/>
      <g stroke="#ffffff" stroke-width="1.5" stroke-linecap="round" fill="none" opacity="0.6">
        <circle r="4"/><line x1="-12" y1="0" x2="-4" y2="0"/><line x1="4" y1="0" x2="12" y2="0"/>
      </g>
      <text x="0" y="44" text-anchor="middle" fill="#ffffff" font-size="7" opacity="0.3" letter-spacing="1">COMMIT</text>
    </g>

    <!-- 2: Push (top-right) -->
    <g transform="translate(131, -131)">
      <circle r="30" fill="#ffffff" fill-opacity="0.015" stroke="#ffffff" stroke-width="0.7" opacity="0.3"/>
      <g stroke="#ffffff" stroke-width="1.5" stroke-linecap="round" stroke-linejoin="round" fill="none" opacity="0.6">
        <line x1="0" y1="8" x2="0" y2="-8"/><polyline points="-5,-3 0,-8 5,-3"/>
      </g>
      <text x="0" y="44" text-anchor="middle" fill="#ffffff" font-size="7" opacity="0.3" letter-spacing="1">PUSH</text>
    </g>

    <!-- 3: Test (right) -->
    <g transform="translate(185, 0)">
      <circle r="30" fill="#ffffff" fill-opacity="0.015" stroke="#ffffff" stroke-width="0.7" opacity="0.3"/>
      <g stroke="#ffffff" stroke-width="1.5" stroke-linecap="round" fill="none" opacity="0.6">
        <path d="M-3-8 L-3 0 L-8 8 L8 8 L3 0 L3-8"/><line x1="-4" y1="-8" x2="4" y2="-8"/>
      </g>
      <text x="0" y="44" text-anchor="middle" fill="#ffffff" font-size="7" opacity="0.3" letter-spacing="1">TEST</text>
    </g>

    <!-- 4: Refactor (bottom-right) -->
    <g transform="translate(131, 131)">
      <circle r="30" fill="#ffffff" fill-opacity="0.015" stroke="#ffffff" stroke-width="0.7" opacity="0.3"/>
      <g stroke="#ffffff" stroke-width="1.5" stroke-linecap="round" fill="none" opacity="0.6">
        <path d="M7-3 A7 7 0 1 0 3 7"/><polyline points="7-7 7-3 3-3"/>
      </g>
      <text x="0" y="44" text-anchor="middle" fill="#ffffff" font-size="7" opacity="0.3" letter-spacing="1">REFACTOR</text>
    </g>

    <!-- 5: Fix (bottom) -->
    <g transform="translate(0, 185)">
      <circle r="30" fill="#ffffff" fill-opacity="0.015" stroke="#ffffff" stroke-width="0.7" opacity="0.3"/>
      <g stroke="#ffffff" stroke-width="1.5" stroke-linecap="round" fill="none" opacity="0.6">
        <path d="M-5 5 L5-5"/><path d="M3-7 L7-3"/><path d="M-7 3 L-3 7"/>
      </g>
      <text x="0" y="44" text-anchor="middle" fill="#ffffff" font-size="7" opacity="0.3" letter-spacing="1">FIX</text>
    </g>

    <!-- 6: Review (bottom-left) -->
    <g transform="translate(-131, 131)">
      <circle r="30" fill="#ffffff" fill-opacity="0.015" stroke="#ffffff" stroke-width="0.7" opacity="0.3"/>
      <g stroke="#ffffff" stroke-width="1.5" stroke-linecap="round" fill="none" opacity="0.6">
        <path d="M-9 0 C-6-6 6-6 9 0 C6 6-6 6-9 0Z"/><circle cx="0" cy="0" r="2.5"/>
      </g>
      <text x="0" y="44" text-anchor="middle" fill="#ffffff" font-size="7" opacity="0.3" letter-spacing="1">REVIEW</text>
    </g>

    <!-- 7: Approve (left, highlighted) -->
    <g transform="translate(-185, 0)">
      <circle r="30" fill="#00d4aa" fill-opacity="0.03" stroke="#00d4aa" stroke-width="0.8" opacity="0.45"/>
      <circle r="26" fill="none" stroke="#00d4aa" stroke-width="0.25" opacity="0.15"/>
      <g stroke="#00d4aa" stroke-width="2" stroke-linecap="round" stroke-linejoin="round" fill="none" opacity="0.7">
        <polyline points="-7,0 -2,6 8,-6"/>
      </g>
      <text x="0" y="44" text-anchor="middle" fill="#00d4aa" font-size="7" opacity="0.4" letter-spacing="1">APPROVE</text>
    </g>

    <!-- 8: Dictate (top-left) -->
    <g transform="translate(-131, -131)">
      <circle r="30" fill="#4488ff" fill-opacity="0.02" stroke="#4488ff" stroke-width="0.7" opacity="0.35"/>
      <g stroke="#4488ff" stroke-width="1.5" stroke-linecap="round" fill="none" opacity="0.6">
        <rect x="-4" y="-9" width="8" height="12" rx="4"/>
        <path d="M-8 3 C-8 8-3 12 0 12 C3 12 8 8 8 3"/>
        <line x1="0" y1="12" x2="0" y2="15"/>
      </g>
      <text x="0" y="44" text-anchor="middle" fill="#4488ff" font-size="7" opacity="0.35" letter-spacing="1">DICTATE</text>
    </g>

    <!-- Center label -->
    <circle r="44" fill="none" stroke="#ffffff" stroke-width="0.5" opacity="0.15"/>
    <text x="0" y="-4" text-anchor="middle" fill="#ffffff" font-size="8" font-weight="700" letter-spacing="2" opacity="0.3">CODE</text>
    <text x="0" y="10" text-anchor="middle" fill="#ffffff" font-size="6" opacity="0.15" letter-spacing="1">8 ACTIONS</text>
  </g>

  <!-- ================================================================ -->
  <!-- TERMINAL RING (8 actions) -->
  <!-- ================================================================ -->
  <g transform="translate(830, 420)">
    <text x="0" y="-245" text-anchor="middle" fill="#ffffff" font-size="11" font-weight="700" letter-spacing="3" opacity="0.55">TERMINAL</text>
    <text x="0" y="-228" text-anchor="middle" fill="#ffffff" font-size="7.5" opacity="0.2" letter-spacing="1.5">DEVOPS AGENT PROFILE</text>

    <circle r="200" fill="none" stroke="#ffffff" stroke-width="0.3" opacity="0.08"/>
    <circle r="170" fill="none" stroke="#ffffff" stroke-width="0.2" opacity="0.04"/>

    <!-- 1: Deploy (top) -->
    <g transform="translate(0, -185)">
      <circle r="30" fill="#ff8844" fill-opacity="0.02" stroke="#ff8844" stroke-width="0.7" opacity="0.35"/>
      <g stroke="#ff8844" stroke-width="1.5" stroke-linecap="round" fill="none" opacity="0.6">
        <path d="M0-8 C6-5 8-1 8 5 L0 2 L-8 5 C-8-1-6-5 0-8Z"/>
        <path d="M-5 7 L-7 10"/><path d="M5 7 L7 10"/>
      </g>
      <text x="0" y="44" text-anchor="middle" fill="#ff8844" font-size="7" opacity="0.35" letter-spacing="1">DEPLOY</text>
    </g>

    <!-- 2: Build (top-right) -->
    <g transform="translate(131, -131)">
      <circle r="30" fill="#ffffff" fill-opacity="0.015" stroke="#ffffff" stroke-width="0.7" opacity="0.3"/>
      <g stroke="#ffffff" stroke-width="1.5" stroke-linecap="round" stroke-linejoin="round" fill="none" opacity="0.6">
        <rect x="-7" y="-7" width="14" height="14" rx="1"/><line x1="-7" y1="0" x2="7" y2="0"/><line x1="0" y1="0" x2="0" y2="7"/>
      </g>
      <text x="0" y="44" text-anchor="middle" fill="#ffffff" font-size="7" opacity="0.3" letter-spacing="1">BUILD</text>
    </g>

    <!-- 3: Logs (right) -->
    <g transform="translate(185, 0)">
      <circle r="30" fill="#ffffff" fill-opacity="0.015" stroke="#ffffff" stroke-width="0.7" opacity="0.3"/>
      <g stroke="#ffffff" stroke-width="1.5" stroke-linecap="round" fill="none" opacity="0.6">
        <line x1="-8" y1="-6" x2="8" y2="-6"/><line x1="-8" y1="-1" x2="5" y2="-1"/>
        <line x1="-8" y1="4" x2="8" y2="4"/><line x1="-8" y1="9" x2="3" y2="9"/>
      </g>
      <text x="0" y="44" text-anchor="middle" fill="#ffffff" font-size="7" opacity="0.3" letter-spacing="1">LOGS</text>
    </g>

    <!-- 4: Monitor (bottom-right) -->
    <g transform="translate(131, 131)">
      <circle r="30" fill="#ffffff" fill-opacity="0.015" stroke="#ffffff" stroke-width="0.7" opacity="0.3"/>
      <g stroke="#ffffff" stroke-width="1.5" stroke-linecap="round" stroke-linejoin="round" fill="none" opacity="0.6">
        <polyline points="-8,4 -4,-2 0,2 4,-6 8,0"/>
      </g>
      <text x="0" y="44" text-anchor="middle" fill="#ffffff" font-size="7" opacity="0.3" letter-spacing="1">MONITOR</text>
    </g>

    <!-- 5: Rollback (bottom) -->
    <g transform="translate(0, 185)">
      <circle r="30" fill="#ff4466" fill-opacity="0.02" stroke="#ff4466" stroke-width="0.7" opacity="0.3"/>
      <g stroke="#ff4466" stroke-width="1.5" stroke-linecap="round" fill="none" opacity="0.5">
        <path d="M-7-3 A7 7 0 1 1-3 7"/><polyline points="-7 1 -7-3-3-3"/>
      </g>
      <text x="0" y="44" text-anchor="middle" fill="#ff4466" font-size="7" opacity="0.3" letter-spacing="1">ROLLBACK</text>
    </g>

    <!-- 6: Status (bottom-left) -->
    <g transform="translate(-131, 131)">
      <circle r="30" fill="#ffffff" fill-opacity="0.015" stroke="#ffffff" stroke-width="0.7" opacity="0.3"/>
      <g stroke="#ffffff" stroke-width="1.5" stroke-linecap="round" fill="none" opacity="0.6">
        <rect x="-9" y="1" width="5" height="7" rx="0.5"/><rect x="-2" y="-5" width="5" height="13" rx="0.5"/>
        <rect x="5" y="-1" width="5" height="9" rx="0.5"/>
      </g>
      <text x="0" y="44" text-anchor="middle" fill="#ffffff" font-size="7" opacity="0.3" letter-spacing="1">STATUS</text>
    </g>

    <!-- 7: Health (left) -->
    <g transform="translate(-185, 0)">
      <circle r="30" fill="#ffffff" fill-opacity="0.015" stroke="#ffffff" stroke-width="0.7" opacity="0.3"/>
      <g stroke="#ffffff" stroke-width="1.5" stroke-linecap="round" stroke-linejoin="round" fill="none" opacity="0.6">
        <polyline points="-10,0 -5,0 -3,-6 0,6 3,-3 5,0 10,0"/>
      </g>
      <text x="0" y="44" text-anchor="middle" fill="#ffffff" font-size="7" opacity="0.3" letter-spacing="1">HEALTH</text>
    </g>

    <!-- 8: Env (top-left) -->
    <g transform="translate(-131, -131)">
      <circle r="30" fill="#ffffff" fill-opacity="0.015" stroke="#ffffff" stroke-width="0.7" opacity="0.3"/>
      <g stroke="#ffffff" stroke-width="1.5" stroke-linecap="round" fill="none" opacity="0.6">
        <circle cx="-5" cy="-5" r="2.5"/><line x1="-5" y1="-2.5" x2="-5" y2="8"/>
        <circle cx="5" cy="5" r="2.5"/><line x1="5" y1="-8" x2="5" y2="2.5"/>
      </g>
      <text x="0" y="44" text-anchor="middle" fill="#ffffff" font-size="7" opacity="0.3" letter-spacing="1">ENV</text>
    </g>

    <!-- Center -->
    <circle r="44" fill="none" stroke="#ffffff" stroke-width="0.5" opacity="0.15"/>
    <text x="0" y="-4" text-anchor="middle" fill="#ffffff" font-size="8" font-weight="700" letter-spacing="2" opacity="0.3">OPS</text>
    <text x="0" y="10" text-anchor="middle" fill="#ffffff" font-size="6" opacity="0.15" letter-spacing="1">8 ACTIONS</text>
  </g>

  <!-- ================================================================ -->
  <!-- BROWSER RING (8 actions) -->
  <!-- ================================================================ -->
  <g transform="translate(1350, 420)">
    <text x="0" y="-245" text-anchor="middle" fill="#ffffff" font-size="11" font-weight="700" letter-spacing="3" opacity="0.55">CHROME</text>
    <text x="0" y="-228" text-anchor="middle" fill="#ffffff" font-size="7.5" opacity="0.2" letter-spacing="1.5">RESEARCHER AGENT PROFILE</text>

    <circle r="200" fill="none" stroke="#ffffff" stroke-width="0.3" opacity="0.08"/>
    <circle r="170" fill="none" stroke="#ffffff" stroke-width="0.2" opacity="0.04"/>

    <!-- 1: Search (top) -->
    <g transform="translate(0, -185)">
      <circle r="30" fill="#ffffff" fill-opacity="0.015" stroke="#ffffff" stroke-width="0.7" opacity="0.3"/>
      <g stroke="#ffffff" stroke-width="1.5" stroke-linecap="round" fill="none" opacity="0.6">
        <circle cx="-2" cy="-2" r="6"/><line x1="2" y1="2" x2="8" y2="8"/>
      </g>
      <text x="0" y="44" text-anchor="middle" fill="#ffffff" font-size="7" opacity="0.3" letter-spacing="1">SEARCH</text>
    </g>

    <!-- 2: Summarize (top-right) -->
    <g transform="translate(131, -131)">
      <circle r="30" fill="#ffffff" fill-opacity="0.015" stroke="#ffffff" stroke-width="0.7" opacity="0.3"/>
      <g stroke="#ffffff" stroke-width="1.5" stroke-linecap="round" fill="none" opacity="0.6">
        <line x1="-7" y1="-6" x2="7" y2="-6"/><line x1="-7" y1="-1" x2="7" y2="-1"/>
        <line x1="-7" y1="4" x2="3" y2="4"/>
      </g>
      <text x="0" y="44" text-anchor="middle" fill="#ffffff" font-size="7" opacity="0.3" letter-spacing="1">SUMMARIZE</text>
    </g>

    <!-- 3: Analyze (right) -->
    <g transform="translate(185, 0)">
      <circle r="30" fill="#ffffff" fill-opacity="0.015" stroke="#ffffff" stroke-width="0.7" opacity="0.3"/>
      <g stroke="#ffffff" stroke-width="1.5" stroke-linecap="round" fill="none" opacity="0.6">
        <rect x="-8" y="1" width="4" height="7" rx="0.5"/><rect x="-2" y="-4" width="4" height="12" rx="0.5"/>
        <rect x="4" y="-1" width="4" height="9" rx="0.5"/>
      </g>
      <text x="0" y="44" text-anchor="middle" fill="#ffffff" font-size="7" opacity="0.3" letter-spacing="1">ANALYZE</text>
    </g>

    <!-- 4: Compare (bottom-right) -->
    <g transform="translate(131, 131)">
      <circle r="30" fill="#ffffff" fill-opacity="0.015" stroke="#ffffff" stroke-width="0.7" opacity="0.3"/>
      <g stroke="#ffffff" stroke-width="1.5" stroke-linecap="round" fill="none" opacity="0.6">
        <line x1="-8" y1="-6" x2="-8" y2="6"/><line x1="8" y1="-6" x2="8" y2="6"/>
        <line x1="-4" y1="-3" x2="4" y2="-3"/><line x1="-4" y1="3" x2="4" y2="3"/>
      </g>
      <text x="0" y="44" text-anchor="middle" fill="#ffffff" font-size="7" opacity="0.3" letter-spacing="1">COMPARE</text>
    </g>

    <!-- 5: Fact-check (bottom) -->
    <g transform="translate(0, 185)">
      <circle r="30" fill="#ffffff" fill-opacity="0.015" stroke="#ffffff" stroke-width="0.7" opacity="0.3"/>
      <g stroke="#ffffff" stroke-width="1.5" stroke-linecap="round" fill="none" opacity="0.6">
        <circle r="7"/><polyline points="-3,0 -1,3 4,-3"/>
      </g>
      <text x="0" y="44" text-anchor="middle" fill="#ffffff" font-size="6.5" opacity="0.3" letter-spacing="1">FACT-CHECK</text>
    </g>

    <!-- 6: Save (bottom-left) -->
    <g transform="translate(-131, 131)">
      <circle r="30" fill="#ffffff" fill-opacity="0.015" stroke="#ffffff" stroke-width="0.7" opacity="0.3"/>
      <g stroke="#ffffff" stroke-width="1.5" stroke-linecap="round" fill="none" opacity="0.6">
        <path d="M-6-8 L-6 8 L6 8 L6-4 L2-8Z"/><line x1="-3" y1="4" x2="3" y2="4"/>
      </g>
      <text x="0" y="44" text-anchor="middle" fill="#ffffff" font-size="7" opacity="0.3" letter-spacing="1">SAVE</text>
    </g>

    <!-- 7: Share (left) -->
    <g transform="translate(-185, 0)">
      <circle r="30" fill="#ffffff" fill-opacity="0.015" stroke="#ffffff" stroke-width="0.7" opacity="0.3"/>
      <g stroke="#ffffff" stroke-width="1.5" stroke-linecap="round" fill="none" opacity="0.6">
        <circle cx="4" cy="-5" r="2"/><circle cx="4" cy="5" r="2"/><circle cx="-5" cy="0" r="2"/>
        <line x1="-3" y1="-1" x2="2" y2="-4"/><line x1="-3" y1="1" x2="2" y2="4"/>
      </g>
      <text x="0" y="44" text-anchor="middle" fill="#ffffff" font-size="7" opacity="0.3" letter-spacing="1">SHARE</text>
    </g>

    <!-- 8: Translate (top-left) -->
    <g transform="translate(-131, -131)">
      <circle r="30" fill="#ffffff" fill-opacity="0.015" stroke="#ffffff" stroke-width="0.7" opacity="0.3"/>
      <g stroke="#ffffff" stroke-width="1.5" stroke-linecap="round" fill="none" opacity="0.6">
        <circle r="8"/><line x1="-8" y1="0" x2="8" y2="0"/><path d="M-8 0 C-6-5 6-5 8 0" fill="none"/>
        <line x1="0" y1="-8" x2="0" y2="8"/>
      </g>
      <text x="0" y="44" text-anchor="middle" fill="#ffffff" font-size="7" opacity="0.3" letter-spacing="1">TRANSLATE</text>
    </g>

    <!-- Center -->
    <circle r="44" fill="none" stroke="#ffffff" stroke-width="0.5" opacity="0.15"/>
    <text x="0" y="-4" text-anchor="middle" fill="#ffffff" font-size="8" font-weight="700" letter-spacing="2" opacity="0.3">WEB</text>
    <text x="0" y="10" text-anchor="middle" fill="#ffffff" font-size="6" opacity="0.15" letter-spacing="1">8 ACTIONS</text>
  </g>

  <!-- Transition arrows -->
  <g stroke="#ffffff" stroke-width="0.4" opacity="0.08" stroke-dasharray="5 4">
    <line x1="530" y1="180" x2="610" y2="180"/>
    <line x1="1050" y1="180" x2="1130" y2="180"/>
  </g>
  <text x="570" y="175" text-anchor="middle" fill="#ffffff" font-size="6.5" opacity="0.12" letter-spacing="1.5">SWITCH APP</text>
  <text x="1090" y="175" text-anchor="middle" fill="#ffffff" font-size="6.5" opacity="0.12" letter-spacing="1.5">SWITCH APP</text>

  <!-- ================================================================ -->
  <!-- HOW IT WORKS panel -->
  <!-- ================================================================ -->
  <g transform="translate(60, 700)">
    <rect width="740" height="120" fill="url(#fd-r)" stroke="#ffffff" stroke-width="0.4" opacity="0.12"/>
    <rect x="1" y="1" width="738" height="24" fill="url(#fd-r)"/>
    <text x="20" y="17" fill="#ffffff" font-size="8" font-weight="700" letter-spacing="3" opacity="0.35">HOW ACTIONS RING WORKS</text>
    <line x1="0" y1="26" x2="740" y2="26" stroke="#ffffff" stroke-width="0.15" opacity="0.05"/>

    <g transform="translate(20, 40)" fill="#ffffff" font-size="7.5" opacity="0.22">
      <text>1. Press thumb on MX Master 4 ring area</text>
      <text y="16">2. On-screen radial overlay appears with 8 action bubbles</text>
      <text y="32">3. Hover over an action (haptic tap confirms selection)</text>
      <text y="48">4. Release thumb to execute the hovered action</text>
      <text y="64">5. Ring profile auto-switches when you change applications</text>
      <text y="80">6. Plugin actions auto-populate the ring picker in Logi Options+</text>
    </g>
  </g>

  <!-- HAPTIC FEEDBACK panel -->
  <g transform="translate(830, 700)">
    <rect width="720" height="120" fill="url(#fd-r)" stroke="#ffffff" stroke-width="0.4" opacity="0.12"/>
    <rect x="1" y="1" width="718" height="24" fill="url(#fd-r)"/>
    <text x="20" y="17" fill="#ffffff" font-size="8" font-weight="700" letter-spacing="3" opacity="0.35">HAPTIC FEEDBACK  //  15 WAVEFORMS</text>
    <line x1="0" y1="26" x2="720" y2="26" stroke="#ffffff" stroke-width="0.15" opacity="0.05"/>

    <g transform="translate(20, 42)">
      <!-- Waveform visual representations -->
      <g fill="#ffffff" font-size="7.5" opacity="0.22">
        <text>Hover item</text>
        <text y="16">Select action</text>
        <text y="32">Agent switched</text>
        <text y="48">Task complete</text>
        <text y="64">Error/failure</text>
      </g>
      <g transform="translate(120, 0)" fill="#ffffff" font-size="7.5" opacity="0.15">
        <text>subtle tap (short, low intensity)</text>
        <text y="16">firm click (medium, precise)</text>
        <text y="32">transition pulse (sweep, confirmation)</text>
        <text y="48">celebratory wave (success pattern)</text>
        <text y="64">sharp buzz (alert, attention)</text>
      </g>
      <!-- Mini waveform visuals -->
      <g transform="translate(440, 0)" stroke="#ffffff" stroke-width="1" stroke-linecap="round" fill="none" opacity="0.15">
        <polyline points="0,4 5,2 10,4 15,3 20,4"/>
        <polyline points="0,20 4,14 8,20 12,14 16,20 20,17" y="0"/>
        <polyline points="0,36 3,30 8,38 12,28 18,36 20,34" y="0"/>
        <polyline points="0,52 2,46 5,54 8,44 12,56 15,42 18,52 20,48" y="0"/>
        <polyline points="0,68 2,62 4,72 6,60 8,72 10,60 12,72 14,62 16,68" y="0"/>
      </g>
    </g>
  </g>

  <!-- Footer -->
  <line x1="30" y1="850" x2="1570" y2="850" stroke="#ffffff" stroke-width="0.3" opacity="0.05"/>
  <text x="30" y="870" fill="#ffffff" font-size="7" opacity="0.12" letter-spacing="1">DWG-004  //  ACTIONS RING  //  SHEET 4 OF 8</text>
  <text x="800" y="870" text-anchor="middle" fill="#ffffff" font-size="7.5" letter-spacing="3.5" opacity="0.15">WISPY CONSOLE  //  UNIVERSAL AI AGENT CONTROL SURFACE  //  LOGITECH ACTIONS SDK  //  HAUSOR LABS 2026</text>
  <text x="1570" y="870" text-anchor="end" fill="#ffffff" font-size="7" opacity="0.12" letter-spacing="1">REV 2.0  //  2026-02-17</text>
</svg>