<svg width="924" height="142" viewBox="0 0 924 142" fill="none" xmlns="http://www.w3.org/2000/svg">
<path d="M61.902 7.29245C101.299 -0.89908 115.05 32.4871 115.155 32.7436C115.188 32.7316 148.444 20.6218 159.403 51.1479C170.347 81.6346 148.519 90.6639 148.439 90.6968C148.443 90.7408 148.93 95.948 147.755 102.249L123.827 86.9106C119.547 84.1669 114.007 87.6564 114.634 92.7016L118.764 125.924C108.503 126.897 101.513 124.394 101.451 124.372C101.451 124.372 87.3541 142.384 63.86 141.993C40.4028 141.602 32.168 115.448 32.1422 115.366C31.9824 115.349 1.20559 112.156 0.0338364 82.8647C-1.13685 53.5774 28.4585 48.8237 28.6178 48.7983C28.5748 48.5668 22.492 15.487 61.902 7.29245ZM68.1666 50.3647C62.1121 50.3651 57.2033 55.2741 57.2028 61.3286V86.3891C57.2029 92.444 62.1118 97.3526 68.1666 97.353C74.2218 97.353 79.1304 92.4443 79.1305 86.3891V61.3286C79.13 55.2738 74.2216 50.3647 68.1666 50.3647ZM95.5768 50.3647C89.5221 50.3651 84.6133 55.2739 84.6129 61.3286V86.3891C84.613 92.4441 89.5219 97.3526 95.5768 97.353C101.632 97.353 106.541 92.4443 106.541 86.3891V61.3286C106.54 55.2736 101.632 50.3647 95.5768 50.3647Z" fill="white"/>
<path d="M123.761 133.723L118.847 94.3438C118.533 91.8229 121.298 90.0766 123.439 91.444L159.574 114.523C161.993 116.068 161.069 119.802 158.209 120.041L139.141 121.632C138.206 121.71 137.361 122.222 136.858 123.014L129.27 134.96C127.762 137.334 124.109 136.514 123.761 133.723Z" fill="white"/>
<path d="M206.071 107L183.741 27.8H200.901L219.381 100.29H213.991L230.491 27.8H249.741L266.021 100.29H260.741L279.331 27.8H295.721L273.391 107H254.471L237.641 35.94H242.041L224.991 107H206.071ZM300.82 107V50.9H317.32V107H300.82ZM300.27 43.42V25.6H317.87V43.42H300.27ZM349.506 108.1C341.293 108.1 334.766 106.45 329.926 103.15C325.086 99.85 322.446 95.3033 322.006 89.51H336.746C337.113 92.0033 338.36 93.91 340.486 95.23C342.686 96.4767 345.693 97.1 349.506 97.1C352.953 97.1 355.446 96.6233 356.986 95.67C358.6 94.6433 359.406 93.2133 359.406 91.38C359.406 89.9867 358.93 88.9233 357.976 88.19C357.096 87.3833 355.446 86.7233 353.026 86.21L344.006 84.34C337.333 82.9467 332.42 80.8567 329.266 78.07C326.113 75.21 324.536 71.5433 324.536 67.07C324.536 61.6433 326.626 57.4267 330.806 54.42C334.986 51.34 340.816 49.8 348.296 49.8C355.703 49.8 361.606 51.3033 366.006 54.31C370.406 57.2433 372.826 61.35 373.266 66.63H358.526C358.233 64.7233 357.206 63.2933 355.446 62.34C353.686 61.3133 351.193 60.8 347.966 60.8C345.033 60.8 342.833 61.24 341.366 62.12C339.973 62.9267 339.276 64.1 339.276 65.64C339.276 66.96 339.863 68.0233 341.036 68.83C342.21 69.5633 344.153 70.2233 346.866 70.81L356.986 72.9C362.633 74.0733 366.886 76.2733 369.746 79.5C372.68 82.6533 374.146 86.3933 374.146 90.72C374.146 96.22 371.983 100.51 367.656 103.59C363.403 106.597 357.353 108.1 349.506 108.1ZM413.186 108.1C407.833 108.1 403.543 106.853 400.316 104.36C397.089 101.867 395.183 98.4567 394.596 94.13L395.476 94.02V129.55H378.976V50.9H395.146V63.33L394.156 63.11C394.963 59.0033 397.163 55.7767 400.756 53.43C404.349 51.01 408.786 49.8 414.066 49.8C419.126 49.8 423.489 51.01 427.156 53.43C430.896 55.7767 433.756 59.1133 435.736 63.44C437.789 67.7667 438.816 72.8633 438.816 78.73C438.816 84.67 437.753 89.84 435.626 94.24C433.499 98.64 430.529 102.05 426.716 104.47C422.903 106.89 418.393 108.1 413.186 108.1ZM408.566 94.9C412.453 94.9 415.606 93.5067 418.026 90.72C420.446 87.9333 421.656 83.9733 421.656 78.84C421.656 73.7067 420.409 69.7833 417.916 67.07C415.496 64.3567 412.306 63 408.346 63C404.533 63 401.379 64.3933 398.886 67.18C396.466 69.8933 395.256 73.8167 395.256 78.95C395.256 84.0833 396.466 88.0433 398.886 90.83C401.379 93.5433 404.606 94.9 408.566 94.9ZM446.104 129.55L461.614 95.23L464.474 90.5L478.994 50.9H496.594L462.604 129.55H446.104ZM457.984 105.9L436.424 50.9H454.244L471.954 101.06L457.984 105.9ZM553.728 108.1C548.008 108.1 542.728 107.11 537.888 105.13C533.048 103.077 528.832 100.217 525.238 96.55C521.718 92.8833 518.968 88.5567 516.988 83.57C515.008 78.51 514.018 73.01 514.018 67.07C514.018 61.13 514.972 55.7033 516.878 50.79C518.858 45.8767 521.608 41.6233 525.128 38.03C528.722 34.3633 532.938 31.5767 537.778 29.67C542.618 27.69 547.935 26.7 553.728 26.7C560.255 26.7 566.122 27.9833 571.328 30.55C576.608 33.0433 580.898 36.6 584.198 41.22C587.572 45.7667 589.625 51.12 590.358 57.28H573.858C572.905 51.6333 570.595 47.38 566.928 44.52C563.262 41.5867 558.898 40.12 553.838 40.12C549.365 40.12 545.405 41.1833 541.958 43.31C538.585 45.4367 535.945 48.5167 534.038 52.55C532.132 56.51 531.178 61.3133 531.178 66.96C531.178 72.68 532.132 77.63 534.038 81.81C536.018 85.9167 538.732 89.1067 542.178 91.38C545.625 93.58 549.585 94.68 554.058 94.68C558.825 94.68 563.042 93.25 566.708 90.39C570.375 87.53 572.758 83.2767 573.858 77.63H590.578C589.625 83.79 587.462 89.18 584.088 93.8C580.715 98.3467 576.425 101.867 571.218 104.36C566.012 106.853 560.182 108.1 553.728 108.1ZM622.923 108.1C616.763 108.1 611.337 106.89 606.643 104.47C602.023 101.977 598.393 98.53 595.753 94.13C593.187 89.6567 591.903 84.5233 591.903 78.73C591.903 72.9367 593.187 67.8767 595.753 63.55C598.393 59.2233 602.023 55.85 606.643 53.43C611.337 51.01 616.763 49.8 622.923 49.8C629.157 49.8 634.583 51.01 639.203 53.43C643.897 55.85 647.527 59.2233 650.093 63.55C652.66 67.8767 653.943 72.9367 653.943 78.73C653.943 84.5233 652.623 89.6567 649.983 94.13C647.417 98.53 643.787 101.977 639.093 104.47C634.473 106.89 629.083 108.1 622.923 108.1ZM622.923 95.12C625.49 95.12 627.8 94.46 629.853 93.14C631.98 91.82 633.667 89.95 634.913 87.53C636.16 85.0367 636.783 82.0667 636.783 78.62C636.783 73.56 635.427 69.6733 632.713 66.96C630.073 64.1733 626.81 62.78 622.923 62.78C619.037 62.78 615.737 64.1733 613.023 66.96C610.383 69.7467 609.063 73.6333 609.063 78.62C609.063 82.0667 609.687 85.0367 610.933 87.53C612.18 89.95 613.83 91.82 615.883 93.14C618.01 94.46 620.357 95.12 622.923 95.12ZM659.39 107V50.9H675.56V64.1H675.89V107H659.39ZM698.44 107V72.24C698.44 69.16 697.634 66.85 696.02 65.31C694.48 63.77 692.207 63 689.2 63C686.634 63 684.324 63.5867 682.27 64.76C680.29 65.9333 678.714 67.5467 677.54 69.6C676.44 71.6533 675.89 74.0733 675.89 76.86L674.46 63.33C676.294 59.2233 678.97 55.96 682.49 53.54C686.084 51.0467 690.484 49.8 695.69 49.8C701.924 49.8 706.69 51.56 709.99 55.08C713.29 58.5267 714.94 63.1833 714.94 69.05V107H698.44ZM746.641 108.1C738.427 108.1 731.901 106.45 727.061 103.15C722.221 99.85 719.581 95.3033 719.141 89.51H733.881C734.247 92.0033 735.494 93.91 737.621 95.23C739.821 96.4767 742.827 97.1 746.641 97.1C750.087 97.1 752.581 96.6233 754.121 95.67C755.734 94.6433 756.541 93.2133 756.541 91.38C756.541 89.9867 756.064 88.9233 755.111 88.19C754.231 87.3833 752.581 86.7233 750.161 86.21L741.141 84.34C734.467 82.9467 729.554 80.8567 726.401 78.07C723.247 75.21 721.671 71.5433 721.671 67.07C721.671 61.6433 723.761 57.4267 727.941 54.42C732.121 51.34 737.951 49.8 745.431 49.8C752.837 49.8 758.741 51.3033 763.141 54.31C767.541 57.2433 769.961 61.35 770.401 66.63H755.661C755.367 64.7233 754.341 63.2933 752.581 62.34C750.821 61.3133 748.327 60.8 745.101 60.8C742.167 60.8 739.967 61.24 738.501 62.12C737.107 62.9267 736.411 64.1 736.411 65.64C736.411 66.96 736.997 68.0233 738.171 68.83C739.344 69.5633 741.287 70.2233 744.001 70.81L754.121 72.9C759.767 74.0733 764.021 76.2733 766.881 79.5C769.814 82.6533 771.281 86.3933 771.281 90.72C771.281 96.22 769.117 100.51 764.791 103.59C760.537 106.597 754.487 108.1 746.641 108.1ZM804.557 108.1C798.397 108.1 792.97 106.89 788.277 104.47C783.657 101.977 780.027 98.53 777.387 94.13C774.82 89.6567 773.537 84.5233 773.537 78.73C773.537 72.9367 774.82 67.8767 777.387 63.55C780.027 59.2233 783.657 55.85 788.277 53.43C792.97 51.01 798.397 49.8 804.557 49.8C810.79 49.8 816.217 51.01 820.837 53.43C825.53 55.85 829.16 59.2233 831.727 63.55C834.293 67.8767 835.577 72.9367 835.577 78.73C835.577 84.5233 834.257 89.6567 831.617 94.13C829.05 98.53 825.42 101.977 820.727 104.47C816.107 106.89 810.717 108.1 804.557 108.1ZM804.557 95.12C807.123 95.12 809.433 94.46 811.487 93.14C813.613 91.82 815.3 89.95 816.547 87.53C817.793 85.0367 818.417 82.0667 818.417 78.62C818.417 73.56 817.06 69.6733 814.347 66.96C811.707 64.1733 808.443 62.78 804.557 62.78C800.67 62.78 797.37 64.1733 794.657 66.96C792.017 69.7467 790.697 73.6333 790.697 78.62C790.697 82.0667 791.32 85.0367 792.567 87.53C793.813 89.95 795.463 91.82 797.517 93.14C799.643 94.46 801.99 95.12 804.557 95.12ZM841.023 107V27.8H857.523V107H841.023ZM893.772 108.1C887.539 108.1 882.112 106.89 877.492 104.47C872.872 101.977 869.279 98.53 866.712 94.13C864.219 89.73 862.972 84.67 862.972 78.95C862.972 73.1567 864.219 68.0967 866.712 63.77C869.279 59.37 872.835 55.96 877.382 53.54C881.929 51.0467 887.209 49.8 893.222 49.8C899.015 49.8 904.039 50.9733 908.292 53.32C912.545 55.6667 915.845 58.93 918.192 63.11C920.539 67.29 921.712 72.2033 921.712 77.85C921.712 79.0233 921.675 80.1233 921.602 81.15C921.529 82.1033 921.419 83.02 921.272 83.9H872.652V73.01H907.962L905.102 74.99C905.102 70.4433 904.002 67.1067 901.802 64.98C899.675 62.78 896.742 61.68 893.002 61.68C888.675 61.68 885.302 63.1467 882.882 66.08C880.535 69.0133 879.362 73.4133 879.362 79.28C879.362 85 880.535 89.2533 882.882 92.04C885.302 94.8267 888.895 96.22 893.662 96.22C896.302 96.22 898.575 95.78 900.482 94.9C902.389 94.02 903.819 92.59 904.772 90.61H920.282C918.449 96.0367 915.295 100.327 910.822 103.48C906.422 106.56 900.739 108.1 893.772 108.1Z" fill="white"/>
</svg>
